# xmcd
#
# Track frame offsets:
#	183
#	17935
#	32365
#	51693
#	71625
#	82825
#	100658
#	114535
#	133745
#	155433
#	176608
#
# Disc length: 2690 seconds
#
# Revision: 5
# Processed by: cddbd v1.5.2PL0 Copyright (c) Steve Scherf et al.
# Submitted via: EZCDAudioConverter 5.0.0.1
#
DISCID=8d0a800b
DTITLE=刘德华 - 一起走过的日子
DYEAR=1994
DGENRE=Chinese Pop
TTITLE0=一起走过的日子(电影至尊无上Ⅱ之“永霸天下”>主题曲)
TTITLE1=天从人愿(电视剧<乌金血剑>主题曲)
TTITLE2=遗弃(电影<无名家族>主题曲)
TTITLE3=热血男儿(电影<至尊计状元才>主题曲)
TTITLE4=不死的梦(电影<至尊无上Ⅱ之“永霸天下”>插曲)
TTITLE5=秋意中等我(电视剧<奇幻人间世>主题曲))
TTITLE6=红尘梦(电影<极度追踪>主题曲)
TTITLE7=城市猎人(电视卡通片<城市猎人>主题曲)
TTITLE8=缘尽(电影<龙凤茶楼>主题曲)
TTITLE9=与孤独在奔往(电影<五虎将>主题曲)
TTITLE10=红尘天使(电影<狱中龙>主题曲)
EXTD=
EXTT0=
EXTT1=
EXTT2=
EXTT3=
EXTT4=
EXTT5=
EXTT6=
EXTT7=
EXTT8=
EXTT9=
EXTT10=
PLAYORDER=
